<?xml version="1.0" encoding="utf-8"?>
<!-- Generator: Adobe Illustrator 25.4.1, SVG Export Plug-In . SVG Version: 6.00 Build 0)  -->
<svg version="1.1" id="Layer_1" xmlns="http://www.w3.org/2000/svg" xmlns:xlink="http://www.w3.org/1999/xlink" x="0px" y="0px"
	 viewBox="0 0 1080 1080" style="enable-background:new 0 0 1080 1080;" xml:space="preserve">
<style type="text/css">
	.st0{fill:#060B1F;}
	.st1{fill:#03EAC2;}
</style>
<desc>Created with Fabric.js 4.2.0</desc>
<g id="d3410325-c3de-4230-83b2-13c15c6bcc65" transform="matrix(1 0 0 1 540 540)">
</g>
<g id="_x30_4d32fa5-b7e3-47c3-83c6-8b1ed5a5f003" transform="matrix(6.17 0 0 6.17 540 540)">
	<circle vector-effect="non-scaling-stroke" class="st0" cx="0" cy="0" r="35"/>
</g>
<g transform="matrix(7.24 0 0 7.24 540.75 538.25)">
	<path vector-effect="non-scaling-stroke" class="st1" d="M0-30c-16.5,0-30,13.5-30,30s13.5,30,30,30S30,16.5,30,0S16.5-30,0-30z
		 M0,28c-15.4,0-28-12.6-28-28s12.6-28,28-28S28-15.4,28,0S15.4,28,0,28z"/>
</g>
<path class="st1" d="M656.2,539l-3.7-2.3c-0.5-1-1.3-1.9-2.3-2.6L494.4,427.9c-2.2-1.5-5-1.6-7.3-0.4c-2.3,1.2-3.8,3.6-3.8,6.3
	v212.4c0,2.6,1.5,5,3.8,6.3c1,0.6,2.2,0.8,3.3,0.8c1.4,0,2.8-0.4,4-1.2l155.8-106.2c1.7-1.2,2.8-3,3-5L656.2,539z"/>
</svg>
